<svg id="Слой_1" data-name="Слой 1" xmlns="http://www.w3.org/2000/svg" viewBox="0 0 40 40">
  <defs>
    <style>
      .cls-1{}
    </style>
  </defs>
  <path class="cls-1" d="M21.79 14.182a.9.9 0 0 1-.9-.9v-2.04l-1.34-.003v2.04a.9.9 0 0 1-1.8 0v-2.42a1.44 1.44 0 0 1 1.573-1.43h1.8a1.437 1.437 0 0 1 1.566 1.424v2.416a.9.9 0 0 1-.9.9z"/>
  <path class="cls-1" d="M23.306 32.046h-6.172a1.34 1.34 0 0 1-1-.45c-.847-.934-.69-3.285-.374-6.505.066-.67.13-1.32.137-1.67-.036-.07-.116-.21-.17-.3a2.27 2.27 0 0 1-.428-1.15v-5.42a3.324 3.324 0 0 1 1.36-2.41A6.992 6.992 0 0 0 17.69 13a.9.9 0 0 1 1.5 1.004 8.515 8.515 0 0 1-1.285 1.44c-.573.544-.805.797-.805 1.107v5.35c.035.074.114.208.17.3a2.233 2.233 0 0 1 .427 1.183c0 .4-.063 1.06-.145 1.89a21.876 21.876 0 0 0-.135 4.98h5.608a21.82 21.82 0 0 0-.134-4.98c-.08-.83-.142-1.49-.142-1.91a2.286 2.286 0 0 1 .432-1.16c.055-.093.14-.23.172-.303v-5.35c0-.31-.24-.565-.81-1.11A8.604 8.604 0 0 1 21.256 14a.9.9 0 0 1 1.492-1.008 7.01 7.01 0 0 0 1.03 1.14 3.327 3.327 0 0 1 1.364 2.414v5.42a2.286 2.286 0 0 1-.43 1.16c-.056.093-.14.227-.17.303.01.35.07.99.134 1.66.314 3.22.47 5.57-.375 6.5a1.34 1.34 0 0 1-1 .45zm-7.41-8.69z"/>
  <path class="cls-1" d="M19.852 22.12h3.646v1.8h-3.646z"/>
</svg>
