<?xml version="1.0" encoding="UTF-8" standalone="no"?>
<svg
   xmlns:dc="http://purl.org/dc/elements/1.1/"
   xmlns:cc="http://creativecommons.org/ns#"
   xmlns:rdf="http://www.w3.org/1999/02/22-rdf-syntax-ns#"
   xmlns:svg="http://www.w3.org/2000/svg"
   xmlns="http://www.w3.org/2000/svg"
   viewBox="0 0 89.457603 112.30253"
   height="112.30253"
   width="89.457603"
   xml:space="preserve"
   id="svg2"
   version="1.1"><metadata
     id="metadata8"><rdf:RDF><cc:Work
         rdf:about=""><dc:format>image/svg+xml</dc:format><dc:type
           rdf:resource="http://purl.org/dc/dcmitype/StillImage" /><dc:title></dc:title></cc:Work></rdf:RDF></metadata><defs
     id="defs6"><clipPath
       id="clipPath18"
       clipPathUnits="userSpaceOnUse"><path
         id="path16"
         d="M 0,84.227 H 67.093 V 0 H 0 Z" /></clipPath></defs><g
     transform="matrix(1.3333333,0,0,-1.3333333,0,112.30253)"
     id="g10"><g
       id="g12"><g
         clip-path="url(#clipPath18)"
         id="g14"><g
           transform="translate(34.0886,82.977)"
           id="g20"><path
             id="path22"
             style="fill:none;stroke:#2c77bc;stroke-width:2.5;stroke-linecap:round;stroke-linejoin:round;stroke-miterlimit:10;stroke-dasharray:none;stroke-opacity:1"
             d="m 0,0 c -1.943,0 -3.632,-1.379 -4.005,-3.304 -0.106,-0.524 -2.596,-11.779 -16.336,-17.996 -1.199,-0.546 -2.062,-1.638 -2.327,-2.921 -0.259,-1.291 0.121,-2.626 1.014,-3.592 0.136,-0.155 2.674,-2.839 7.25,-5.089 -3.312,-3.488 -7.273,-6.284 -11.801,-8.334 -1.202,-0.538 -2.061,-1.63 -2.322,-2.913 -0.259,-1.291 0.113,-2.633 1.013,-3.585 0.185,-0.206 3.729,-3.968 10.149,-6.889 -3.754,-3.687 -8.128,-6.667 -13.073,-8.909 -1.236,-0.56 -2.117,-1.697 -2.342,-3.046 -0.229,-1.335 0.217,-2.699 1.21,-3.636 0.487,-0.472 12.295,-11.513 31.028,-11.513 10.171,0 20.404,3.26 30.413,9.691 1.25,0.804 1.961,2.213 1.877,3.695 -0.089,1.475 -0.977,2.796 -2.312,3.438 -0.082,0.036 -7.092,3.488 -13.8,10.303 3.307,1.312 6.638,2.995 9.946,5.03 1.272,0.781 2.017,2.19 1.939,3.694 -0.077,1.491 -0.965,2.826 -2.316,3.475 -0.069,0.029 -6.434,3.171 -12.265,9.366 2.365,0.981 4.739,2.198 7.107,3.651 1.298,0.797 2.047,2.25 1.935,3.761 -0.099,1.52 -1.04,2.855 -2.429,3.467 C 19.424,-22.089 5.41,-15.71 4.067,-3.636 3.843,-1.63 2.184,-0.081 0.166,0 H 0" /></g></g></g></g></svg>